<svg width="22" height="21" viewBox="0 0 22 21" fill="none" xmlns="http://www.w3.org/2000/svg">
<path d="M11.0279 12.9869C10.9434 12.9869 10.8659 12.9728 10.7955 12.9447C10.7251 12.9165 10.6547 12.8672 10.5843 12.7968L6.40202 8.61453C6.27528 8.4878 6.21191 8.33994 6.21191 8.17096C6.21191 8.00198 6.27528 7.85412 6.40202 7.72738C6.52875 7.60065 6.68013 7.53728 6.85616 7.53728C7.03218 7.53728 7.18356 7.60065 7.31029 7.72738L11.0279 11.445L14.7455 7.72738C14.8722 7.60065 15.0201 7.53728 15.1891 7.53728C15.358 7.53728 15.5059 7.60065 15.6326 7.72738C15.7594 7.85412 15.8227 8.0055 15.8227 8.18152C15.8227 8.35754 15.7594 8.50892 15.6326 8.63566L11.4715 12.7968C11.4011 12.8672 11.3306 12.9165 11.2602 12.9447C11.1898 12.9728 11.1124 12.9869 11.0279 12.9869Z" fill="#213D77"/>
</svg>
